<?xml version="1.0" encoding="iso-8859-1"?>
<!-- Generator: Adobe Illustrator 19.0.0, SVG Export Plug-In . SVG Version: 6.00 Build 0)  -->
<svg version="1.1" id="Capa_1" xmlns="http://www.w3.org/2000/svg" xmlns:xlink="http://www.w3.org/1999/xlink" x="0px" y="0px"
	 viewBox="0 0 354.8 354.8" style="enable-background:new 0 0 354.8 354.8;" xml:space="preserve">
<g>
	<g>
		<path d="M276.8,9.52H78c-43.06,0.044-77.956,34.94-78,78v136.8c0,3.314,2.686,6,6,6h184.8v108.96c0,3.314,2.686,6,6,6s6-2.686,6-6
			V230.32h146c3.314,0,6-2.686,6-6V87.52C354.756,44.46,319.86,9.564,276.8,9.52z M144,218.32H12V87.52c0-36.451,29.549-66,66-66
			s66,29.549,66,66V218.32z M342.8,218.32H156V87.52c0.053-26.928-13.801-51.974-36.64-66.24H276.8
			c36.433,0.044,65.956,29.567,66,66V218.32z"/>
	</g>
</g>
<g>
	<g>
		<path d="M260.8,39.68h-1.28l-76-0.48c-3.313,0.052-5.958,2.779-5.906,6.093c0.043,2.75,1.949,5.118,4.626,5.747L182,50.88
			c24.495,5.384,40.021,29.567,34.72,54.08c-0.707,3.237,1.344,6.435,4.582,7.142c0.413,0.09,0.835,0.137,1.258,0.138l76,0.48
			c2.812-0.01,5.24-1.972,5.84-4.72C311.149,77.108,291.661,46.57,260.8,39.68z M293.44,100.72l-64-0.4
			c1.619-18.721-5.995-37.054-20.4-49.12l49.52,0.32C280.963,56.729,295.941,77.856,293.44,100.72z"/>
	</g>
</g>
<g>
	<g>
		<path d="M113.2,173.28h-0.08H33.84c-3.314,0-6,2.686-6,6s2.686,6,6,6h79.36c3.314,0,6-2.686,6-6S116.514,173.28,113.2,173.28z"/>
	</g>
</g>
<g>
</g>
<g>
</g>
<g>
</g>
<g>
</g>
<g>
</g>
<g>
</g>
<g>
</g>
<g>
</g>
<g>
</g>
<g>
</g>
<g>
</g>
<g>
</g>
<g>
</g>
<g>
</g>
<g>
</g>
</svg>
