<?xml version="1.0" encoding="iso-8859-1"?>
<!-- Generator: Adobe Illustrator 19.0.0, SVG Export Plug-In . SVG Version: 6.00 Build 0)  -->
<svg version="1.1" id="Capa_1" xmlns="http://www.w3.org/2000/svg" xmlns:xlink="http://www.w3.org/1999/xlink" x="0px" y="0px"
	 viewBox="0 0 480 480" style="enable-background:new 0 0 480 480;" xml:space="preserve">
<g>
	<g>
		<path d="M436.002,304c-13.255,0-24,10.745-24,24v8H385.77l-61.6-184.712l21.768-49.376l-22.264-9.832l26.144-58.4l-14.616-6.48
			l-26.168,58.4l-7.88-3.472l-25.56-76.656c-1.089-3.268-4.147-5.473-7.592-5.472h-96c-3.445-0.001-6.503,2.204-7.592,5.472
			l-144,432c-1.396,4.192,0.87,8.722,5.062,10.118c0.816,0.272,1.67,0.41,2.53,0.41h24v8c0,13.255,10.745,24,24,24s24-10.745,24-24
			v-8h240v8c0,13.255,10.745,24,24,24s24-10.745,24-24v-8h24c4.418,0.001,8.001-3.58,8.002-7.998c0-0.86-0.138-1.714-0.41-2.53
			L391.106,352h20.896v8c0,13.255,10.745,24,24,24s24-10.745,24-24v-32C460.002,314.745,449.257,304,436.002,304z M355.57,296
			H252.002v-43.88l38.976-87.032l22.72,10.024l0.896-2.04L355.57,296z M324.874,110.096l-19.368,43.92l-29.272-12.912l19.368-43.92
			L324.874,110.096z M177.77,16h84.464l5.336,16h-95.136L177.77,16z M167.098,48h105.808l11.576,34.736l-29.344,66.552l21.2,9.344
			l-24.336,54.344V72h-64v224H84.434L167.098,48z M229.154,264h-25.152v-16h32v0.704L229.154,264z M236.002,287.848V296h-3.656
			L236.002,287.848z M221.986,280l-7.2,16h-10.784v-16H221.986z M204.002,232v-16h32v16H204.002z M204.002,200v-16h32v16H204.002z
			 M204.002,168v-16h32v16H204.002z M204.002,136v-16h32v16H204.002z M204.002,104V88h32v16H204.002z M84.002,456
			c0,4.418-3.582,8-8,8s-8-3.582-8-8v-8h16V456z M372.002,456c0,4.418-3.582,8-8,8s-8-3.582-8-8v-8h16V456z M400.906,432h-12.904
			H39.098l40-120h281.808L400.906,432z M444.002,360c0,4.418-3.582,8-8,8s-8-3.582-8-8v-32c0-4.418,3.582-8,8-8s8,3.582,8,8V360z"/>
	</g>
</g>
<g>
</g>
<g>
</g>
<g>
</g>
<g>
</g>
<g>
</g>
<g>
</g>
<g>
</g>
<g>
</g>
<g>
</g>
<g>
</g>
<g>
</g>
<g>
</g>
<g>
</g>
<g>
</g>
<g>
</g>
</svg>
