<?xml version="1.0" encoding="iso-8859-1"?>
<!-- Generator: Adobe Illustrator 19.0.0, SVG Export Plug-In . SVG Version: 6.00 Build 0)  -->
<svg version="1.1" id="Capa_1" xmlns="http://www.w3.org/2000/svg" xmlns:xlink="http://www.w3.org/1999/xlink" x="0px" y="0px"
	 viewBox="0 0 479.974 479.974" style="enable-background:new 0 0 479.974 479.974;" xml:space="preserve">
<g>
	<g>
		<path d="M245.656,258.302l-24-24c-3.124-3.123-8.188-3.123-11.312,0l-48,48c-3.123,3.124-3.123,8.188,0,11.312l24,24
			c3.124,3.123,8.188,3.123,11.312,0l48-48C248.779,266.49,248.779,261.426,245.656,258.302z M192,300.646l-12.688-12.688
			L192,275.271l12.688,12.688L192,300.646z M216,276.646l-12.688-12.688L216,251.271l12.688,12.688L216,276.646z"/>
	</g>
</g>
<g>
	<g>
		<path d="M462.744,171.35c32.911-52.207,17.269-121.208-34.938-154.119C391.386-5.729,345.015-5.723,308.6,17.247l-6.944-6.944
			c-3.124-3.123-8.188-3.123-11.312,0l-24,24c-3.123,3.124-3.123,8.188,0,11.312l6.968,6.968
			c-13.275,21.298-19.069,46.415-16.464,71.376L2.096,402.558c-2.888,3.158-2.779,8.03,0.248,11.056l64,64
			c3.026,3.027,7.898,3.136,11.056,0.248L356,223.159c24.996,2.787,50.195-3.023,71.448-16.472l6.92,6.92
			c3.124,3.123,8.188,3.123,11.312,0l24-24c3.123-3.124,3.123-8.188,0-11.312L462.744,171.35z M451.147,63.966
			c17.103,29.652,17.102,66.173-0.003,95.824l-0.016,0.04L320.176,28.815C366.049,2.355,424.687,18.093,451.147,63.966z
			 M72.248,460.894l-53.184-53.184l218.448-238.952l73.688,73.688L72.248,460.894z M322.992,231.639l-74.672-74.672l15.936-17.44
			l76.168,76.176L322.992,231.639z M354.248,206.91l-40.608-40.608l-40.608-40.608c-2.983-21.259,1.179-42.907,11.832-61.544
			l65.464,65.464l65.464,65.472C397.154,205.739,375.506,209.898,354.248,206.91z M439.984,196.686l-5.864-5.864l-144.944-145
			l-5.864-5.864L296,27.271l5.864,5.864l144.96,144.96l5.864,5.864L439.984,196.686z"/>
	</g>
</g>
<g>
</g>
<g>
</g>
<g>
</g>
<g>
</g>
<g>
</g>
<g>
</g>
<g>
</g>
<g>
</g>
<g>
</g>
<g>
</g>
<g>
</g>
<g>
</g>
<g>
</g>
<g>
</g>
<g>
</g>
</svg>
